<svg xmlns="http://www.w3.org/2000/svg" width="64" height="64" viewBox="0 0 64 64">
  <!-- transparent background -->
  <rect x="5"  y="36" width="8"  height="22" rx="1.5" fill="#5a5a56"/>
  <rect x="15" y="18" width="11" height="40" rx="1.5" fill="#861442"/>
  <rect x="28" y="26" width="9"  height="32" rx="1.5" fill="#be3650"/>
  <rect x="39" y="34" width="8"  height="24" rx="1.5" fill="#c8c4bc"/>
  <rect x="49" y="22" width="9"  height="36" rx="1.5" fill="#5a5a56"/>
  <rect x="18" y="22" width="3" height="2.5" rx="0.4" fill="#ffffff" opacity="0.4"/>
  <rect x="22" y="22" width="3" height="2.5" rx="0.4" fill="#ffffff" opacity="0.4"/>
  <rect x="18" y="28" width="3" height="2.5" rx="0.4" fill="#ffffff" opacity="0.4"/>
  <rect x="22" y="28" width="3" height="2.5" rx="0.4" fill="#ffffff" opacity="0.4"/>
  <rect x="18" y="34" width="3" height="2.5" rx="0.4" fill="#ffffff" opacity="0.4"/>
  <rect x="22" y="34" width="3" height="2.5" rx="0.4" fill="#ffffff" opacity="0.4"/>
  <rect x="18" y="40" width="3" height="2.5" rx="0.4" fill="#ffffff" opacity="0.4"/>
  <rect x="22" y="40" width="3" height="2.5" rx="0.4" fill="#ffffff" opacity="0.4"/>
  <rect x="30" y="30" width="2.5" height="2" rx="0.3" fill="#ffffff" opacity="0.35"/>
  <rect x="34" y="30" width="2.5" height="2" rx="0.3" fill="#ffffff" opacity="0.35"/>
  <rect x="30" y="36" width="2.5" height="2" rx="0.3" fill="#ffffff" opacity="0.35"/>
  <rect x="34" y="36" width="2.5" height="2" rx="0.3" fill="#ffffff" opacity="0.35"/>
  <rect x="51" y="27" width="2.5" height="2" rx="0.3" fill="#ffffff" opacity="0.3"/>
  <rect x="55" y="27" width="2.5" height="2" rx="0.3" fill="#ffffff" opacity="0.3"/>
  <rect x="51" y="33" width="2.5" height="2" rx="0.3" fill="#ffffff" opacity="0.3"/>
  <rect x="55" y="33" width="2.5" height="2" rx="0.3" fill="#ffffff" opacity="0.3"/>
  <rect x="5" y="58" width="54" height="1.5" rx="0.75" fill="#861442" opacity="0.8"/>
</svg>
